<svg width="345" height="154" viewBox="0 0 345 154" fill="none" xmlns="http://www.w3.org/2000/svg">
<path d="M80.6592 108.423C77.2617 112.492 72.459 115.659 66.2512 117.924C60.0435 120.147 53.1646 121.258 45.6146 121.258C37.6871 121.258 30.7243 119.539 24.7262 116.099C18.7701 112.618 14.1562 107.584 10.8846 100.999C7.65486 94.4139 5.99806 86.6751 5.91417 77.7829V71.5542C5.91417 62.4103 7.44514 54.5038 10.5071 47.8346C13.611 41.1235 18.0571 36.0063 23.8454 32.4829C29.6757 28.9176 36.4917 27.135 44.2933 27.135C55.1569 27.135 63.6507 29.7356 69.7746 34.9367C75.8985 40.0958 79.5267 47.6249 80.6592 57.5238H62.2875C61.4486 52.2807 59.5821 48.4428 56.6879 46.01C53.8357 43.5772 49.8929 42.3608 44.8596 42.3608C38.4421 42.3608 33.5556 44.7726 30.2 49.5963C26.8444 54.4199 25.1457 61.5924 25.1037 71.1138V76.965C25.1037 86.5703 26.9283 93.8267 30.5775 98.7342C34.2267 103.642 39.5746 106.095 46.6212 106.095C53.7099 106.095 58.7642 104.585 61.7842 101.565V85.7733H44.6079V71.8688H80.6592V108.423ZM91.9842 85.3329C91.9842 78.5799 93.2844 72.5608 95.885 67.2758C98.4856 61.9908 102.219 57.9013 107.084 55.0071C111.992 52.1129 117.675 50.6658 124.135 50.6658C133.32 50.6658 140.807 53.4761 146.596 59.0967C152.426 64.7172 155.677 72.3511 156.348 81.9983L156.474 86.6542C156.474 97.0983 153.559 105.487 147.728 111.821C141.898 118.113 134.075 121.258 124.26 121.258C114.445 121.258 106.602 118.113 100.73 111.821C94.8993 105.529 91.9842 96.9725 91.9842 86.1508V85.3329ZM110.167 86.6542C110.167 93.1136 111.383 98.0631 113.816 101.503C116.249 104.9 119.73 106.599 124.26 106.599C128.665 106.599 132.104 104.921 134.579 101.565C137.053 98.1679 138.291 92.7571 138.291 85.3329C138.291 78.9993 137.053 74.0918 134.579 70.6104C132.104 67.129 128.623 65.3883 124.135 65.3883C119.688 65.3883 116.249 67.129 113.816 70.6104C111.383 74.0499 110.167 79.3978 110.167 86.6542ZM223.983 82.5646H187.743V120H168.868V28.3933H228.513V43.6821H187.743V67.3388H223.983V82.5646ZM257.455 120H239.209V23.36H257.455V120ZM297.91 94.2671L310.494 51.9242H329.998L302.629 130.57L301.119 134.156C297.051 143.048 290.339 147.495 280.986 147.495C278.343 147.495 275.659 147.096 272.932 146.299V132.52L275.701 132.583C279.14 132.583 281.699 132.059 283.377 131.01C285.096 129.962 286.439 128.221 287.403 125.788L289.542 120.189L265.697 51.9242H285.264L297.91 94.2671Z" fill="#1B78AC"/>
<path d="M59.3672 143.219H51.6211L49.8633 148H48.3516L54.8086 130.938H56.1797L62.6367 148H61.1367L59.3672 143.219ZM52.0664 141.988H58.9102L55.4883 132.695L52.0664 141.988ZM64.2656 141.543C64.2656 139.559 64.7031 137.988 65.5781 136.832C66.4609 135.668 67.6562 135.086 69.1641 135.086C70.8906 135.086 72.2031 135.773 73.1016 137.148L73.1719 135.32H74.4844V147.742C74.4844 149.375 74.0273 150.668 73.1133 151.621C72.1992 152.574 70.9609 153.051 69.3984 153.051C68.5156 153.051 67.6719 152.852 66.8672 152.453C66.0703 152.062 65.4414 151.539 64.9805 150.883L65.7656 150.039C66.7578 151.258 67.9375 151.867 69.3047 151.867C70.4766 151.867 71.3906 151.52 72.0469 150.824C72.7031 150.137 73.043 149.18 73.0664 147.953V146.359C72.168 147.609 70.8594 148.234 69.1406 148.234C67.6719 148.234 66.4922 147.648 65.6016 146.477C64.7109 145.305 64.2656 143.723 64.2656 141.73V141.543ZM65.6836 141.789C65.6836 143.406 66.0078 144.684 66.6562 145.621C67.3047 146.551 68.2188 147.016 69.3984 147.016C71.125 147.016 72.3477 146.242 73.0664 144.695V138.801C72.7383 137.988 72.2656 137.371 71.6484 136.949C71.0312 136.52 70.2891 136.305 69.4219 136.305C68.2422 136.305 67.3242 136.77 66.668 137.699C66.0117 138.621 65.6836 139.984 65.6836 141.789ZM83.0508 148.234C81.9727 148.234 80.9961 147.969 80.1211 147.438C79.2539 146.906 78.5781 146.168 78.0938 145.223C77.6094 144.27 77.3672 143.203 77.3672 142.023V141.52C77.3672 140.301 77.6016 139.203 78.0703 138.227C78.5469 137.25 79.207 136.484 80.0508 135.93C80.8945 135.367 81.8086 135.086 82.793 135.086C84.332 135.086 85.5508 135.613 86.4492 136.668C87.3555 137.715 87.8086 139.148 87.8086 140.969V141.754H78.7617V142.023C78.7617 143.461 79.1719 144.66 79.9922 145.621C80.8203 146.574 81.8594 147.051 83.1094 147.051C83.8594 147.051 84.5195 146.914 85.0898 146.641C85.668 146.367 86.1914 145.93 86.6602 145.328L87.5391 145.996C86.5078 147.488 85.0117 148.234 83.0508 148.234ZM82.793 136.281C81.7383 136.281 80.8477 136.668 80.1211 137.441C79.4023 138.215 78.9648 139.254 78.8086 140.559H86.4141V140.406C86.375 139.188 86.0273 138.195 85.3711 137.43C84.7148 136.664 83.8555 136.281 82.793 136.281ZM86.2148 133.141V133.258H84.9141L82.9453 131.113L80.9883 133.258H79.7109V133.105L82.5 130.117H83.3906L86.2148 133.141ZM91.875 135.32L91.9219 137.488C92.3984 136.707 92.9922 136.113 93.7031 135.707C94.4141 135.293 95.1992 135.086 96.0586 135.086C97.418 135.086 98.4297 135.469 99.0938 136.234C99.7578 137 100.094 138.148 100.102 139.68V148H98.707V139.668C98.6992 138.535 98.457 137.691 97.9805 137.137C97.5117 136.582 96.7578 136.305 95.7188 136.305C94.8516 136.305 94.082 136.578 93.4102 137.125C92.7461 137.664 92.2539 138.395 91.9336 139.316V148H90.5391V135.32H91.875ZM108.422 147.051C109.398 147.051 110.215 146.777 110.871 146.23C111.535 145.676 111.895 144.961 111.949 144.086H113.297C113.258 144.859 113.016 145.566 112.57 146.207C112.125 146.84 111.531 147.336 110.789 147.695C110.055 148.055 109.266 148.234 108.422 148.234C106.758 148.234 105.438 147.656 104.461 146.5C103.492 145.344 103.008 143.789 103.008 141.836V141.414C103.008 140.164 103.227 139.059 103.664 138.098C104.102 137.137 104.727 136.395 105.539 135.871C106.359 135.348 107.316 135.086 108.41 135.086C109.801 135.086 110.945 135.5 111.844 136.328C112.75 137.156 113.234 138.246 113.297 139.598H111.949C111.887 138.605 111.527 137.805 110.871 137.195C110.223 136.586 109.402 136.281 108.41 136.281C107.145 136.281 106.16 136.738 105.457 137.652C104.762 138.566 104.414 139.848 104.414 141.496V141.906C104.414 143.523 104.762 144.785 105.457 145.691C106.16 146.598 107.148 147.051 108.422 147.051ZM117.68 148H116.273V135.32H117.68V148ZM116.027 131.652C116.027 131.387 116.113 131.164 116.285 130.984C116.457 130.797 116.691 130.703 116.988 130.703C117.285 130.703 117.52 130.797 117.691 130.984C117.871 131.164 117.961 131.387 117.961 131.652C117.961 131.918 117.871 132.141 117.691 132.32C117.52 132.5 117.285 132.59 116.988 132.59C116.691 132.59 116.457 132.5 116.285 132.32C116.113 132.141 116.027 131.918 116.027 131.652ZM129.504 148C129.363 147.602 129.273 147.012 129.234 146.23C128.742 146.871 128.113 147.367 127.348 147.719C126.59 148.062 125.785 148.234 124.934 148.234C123.715 148.234 122.727 147.895 121.969 147.215C121.219 146.535 120.844 145.676 120.844 144.637C120.844 143.402 121.355 142.426 122.379 141.707C123.41 140.988 124.844 140.629 126.68 140.629H129.223V139.188C129.223 138.281 128.941 137.57 128.379 137.055C127.824 136.531 127.012 136.27 125.941 136.27C124.965 136.27 124.156 136.52 123.516 137.02C122.875 137.52 122.555 138.121 122.555 138.824L121.148 138.812C121.148 137.805 121.617 136.934 122.555 136.199C123.492 135.457 124.645 135.086 126.012 135.086C127.426 135.086 128.539 135.441 129.352 136.152C130.172 136.855 130.594 137.84 130.617 139.105V145.105C130.617 146.332 130.746 147.25 131.004 147.859V148H129.504ZM125.098 146.992C126.035 146.992 126.871 146.766 127.605 146.312C128.348 145.859 128.887 145.254 129.223 144.496V141.707H126.715C125.316 141.723 124.223 141.98 123.434 142.48C122.645 142.973 122.25 143.652 122.25 144.52C122.25 145.23 122.512 145.82 123.035 146.289C123.566 146.758 124.254 146.992 125.098 146.992ZM139.641 141.543C139.641 139.574 140.078 138.008 140.953 136.844C141.836 135.672 143.031 135.086 144.539 135.086C146.25 135.086 147.555 135.762 148.453 137.113V130H149.848V148H148.535L148.477 146.312C147.578 147.594 146.258 148.234 144.516 148.234C143.055 148.234 141.875 147.648 140.977 146.477C140.086 145.297 139.641 143.707 139.641 141.707V141.543ZM141.059 141.789C141.059 143.406 141.383 144.684 142.031 145.621C142.68 146.551 143.594 147.016 144.773 147.016C146.5 147.016 147.727 146.254 148.453 144.73V138.777C147.727 137.129 146.508 136.305 144.797 136.305C143.617 136.305 142.699 136.77 142.043 137.699C141.387 138.621 141.059 139.984 141.059 141.789ZM158.449 148.234C157.371 148.234 156.395 147.969 155.52 147.438C154.652 146.906 153.977 146.168 153.492 145.223C153.008 144.27 152.766 143.203 152.766 142.023V141.52C152.766 140.301 153 139.203 153.469 138.227C153.945 137.25 154.605 136.484 155.449 135.93C156.293 135.367 157.207 135.086 158.191 135.086C159.73 135.086 160.949 135.613 161.848 136.668C162.754 137.715 163.207 139.148 163.207 140.969V141.754H154.16V142.023C154.16 143.461 154.57 144.66 155.391 145.621C156.219 146.574 157.258 147.051 158.508 147.051C159.258 147.051 159.918 146.914 160.488 146.641C161.066 146.367 161.59 145.93 162.059 145.328L162.938 145.996C161.906 147.488 160.41 148.234 158.449 148.234ZM158.191 136.281C157.137 136.281 156.246 136.668 155.52 137.441C154.801 138.215 154.363 139.254 154.207 140.559H161.812V140.406C161.773 139.188 161.426 138.195 160.77 137.43C160.113 136.664 159.254 136.281 158.191 136.281ZM177.246 145.891L177.34 146.254L177.445 145.891L182.812 130.938H184.395L178.043 148H176.66L170.309 130.938H171.879L177.246 145.891ZM188.156 148H186.75V135.32H188.156V148ZM186.504 131.652C186.504 131.387 186.59 131.164 186.762 130.984C186.934 130.797 187.168 130.703 187.465 130.703C187.762 130.703 187.996 130.797 188.168 130.984C188.348 131.164 188.438 131.387 188.438 131.652C188.438 131.918 188.348 132.141 188.168 132.32C187.996 132.5 187.762 132.59 187.465 132.59C187.168 132.59 186.934 132.5 186.762 132.32C186.59 132.141 186.504 131.918 186.504 131.652ZM199.98 148C199.84 147.602 199.75 147.012 199.711 146.23C199.219 146.871 198.59 147.367 197.824 147.719C197.066 148.062 196.262 148.234 195.41 148.234C194.191 148.234 193.203 147.895 192.445 147.215C191.695 146.535 191.32 145.676 191.32 144.637C191.32 143.402 191.832 142.426 192.855 141.707C193.887 140.988 195.32 140.629 197.156 140.629H199.699V139.188C199.699 138.281 199.418 137.57 198.855 137.055C198.301 136.531 197.488 136.27 196.418 136.27C195.441 136.27 194.633 136.52 193.992 137.02C193.352 137.52 193.031 138.121 193.031 138.824L191.625 138.812C191.625 137.805 192.094 136.934 193.031 136.199C193.969 135.457 195.121 135.086 196.488 135.086C197.902 135.086 199.016 135.441 199.828 136.152C200.648 136.855 201.07 137.84 201.094 139.105V145.105C201.094 146.332 201.223 147.25 201.48 147.859V148H199.98ZM195.574 146.992C196.512 146.992 197.348 146.766 198.082 146.312C198.824 145.859 199.363 145.254 199.699 144.496V141.707H197.191C195.793 141.723 194.699 141.98 193.91 142.48C193.121 142.973 192.727 143.652 192.727 144.52C192.727 145.23 192.988 145.82 193.512 146.289C194.043 146.758 194.73 146.992 195.574 146.992ZM204.281 141.543C204.281 139.559 204.719 137.988 205.594 136.832C206.477 135.668 207.672 135.086 209.18 135.086C210.906 135.086 212.219 135.773 213.117 137.148L213.188 135.32H214.5V147.742C214.5 149.375 214.043 150.668 213.129 151.621C212.215 152.574 210.977 153.051 209.414 153.051C208.531 153.051 207.688 152.852 206.883 152.453C206.086 152.062 205.457 151.539 204.996 150.883L205.781 150.039C206.773 151.258 207.953 151.867 209.32 151.867C210.492 151.867 211.406 151.52 212.062 150.824C212.719 150.137 213.059 149.18 213.082 147.953V146.359C212.184 147.609 210.875 148.234 209.156 148.234C207.688 148.234 206.508 147.648 205.617 146.477C204.727 145.305 204.281 143.723 204.281 141.73V141.543ZM205.699 141.789C205.699 143.406 206.023 144.684 206.672 145.621C207.32 146.551 208.234 147.016 209.414 147.016C211.141 147.016 212.363 146.242 213.082 144.695V138.801C212.754 137.988 212.281 137.371 211.664 136.949C211.047 136.52 210.305 136.305 209.438 136.305C208.258 136.305 207.34 136.77 206.684 137.699C206.027 138.621 205.699 139.984 205.699 141.789ZM223.066 148.234C221.988 148.234 221.012 147.969 220.137 147.438C219.27 146.906 218.594 146.168 218.109 145.223C217.625 144.27 217.383 143.203 217.383 142.023V141.52C217.383 140.301 217.617 139.203 218.086 138.227C218.562 137.25 219.223 136.484 220.066 135.93C220.91 135.367 221.824 135.086 222.809 135.086C224.348 135.086 225.566 135.613 226.465 136.668C227.371 137.715 227.824 139.148 227.824 140.969V141.754H218.777V142.023C218.777 143.461 219.188 144.66 220.008 145.621C220.836 146.574 221.875 147.051 223.125 147.051C223.875 147.051 224.535 146.914 225.105 146.641C225.684 146.367 226.207 145.93 226.676 145.328L227.555 145.996C226.523 147.488 225.027 148.234 223.066 148.234ZM222.809 136.281C221.754 136.281 220.863 136.668 220.137 137.441C219.418 138.215 218.98 139.254 218.824 140.559H226.43V140.406C226.391 139.188 226.043 138.195 225.387 137.43C224.73 136.664 223.871 136.281 222.809 136.281ZM231.891 135.32L231.938 137.488C232.414 136.707 233.008 136.113 233.719 135.707C234.43 135.293 235.215 135.086 236.074 135.086C237.434 135.086 238.445 135.469 239.109 136.234C239.773 137 240.109 138.148 240.117 139.68V148H238.723V139.668C238.715 138.535 238.473 137.691 237.996 137.137C237.527 136.582 236.773 136.305 235.734 136.305C234.867 136.305 234.098 136.578 233.426 137.125C232.762 137.664 232.27 138.395 231.949 139.316V148H230.555V135.32H231.891ZM251.344 144.777C251.344 144.082 251.062 143.523 250.5 143.102C249.945 142.68 249.105 142.352 247.98 142.117C246.855 141.875 245.98 141.602 245.355 141.297C244.738 140.984 244.277 140.605 243.973 140.16C243.676 139.715 243.527 139.176 243.527 138.543C243.527 137.543 243.945 136.719 244.781 136.07C245.617 135.414 246.688 135.086 247.992 135.086C249.406 135.086 250.539 135.438 251.391 136.141C252.25 136.836 252.68 137.746 252.68 138.871H251.273C251.273 138.129 250.961 137.512 250.336 137.02C249.719 136.527 248.938 136.281 247.992 136.281C247.07 136.281 246.328 136.488 245.766 136.902C245.211 137.309 244.934 137.84 244.934 138.496C244.934 139.129 245.164 139.621 245.625 139.973C246.094 140.316 246.941 140.633 248.168 140.922C249.402 141.211 250.324 141.52 250.934 141.848C251.551 142.176 252.008 142.57 252.305 143.031C252.602 143.492 252.75 144.051 252.75 144.707C252.75 145.777 252.316 146.633 251.449 147.273C250.59 147.914 249.465 148.234 248.074 148.234C246.598 148.234 245.398 147.879 244.477 147.168C243.562 146.449 243.105 145.543 243.105 144.449H244.512C244.566 145.27 244.91 145.91 245.543 146.371C246.184 146.824 247.027 147.051 248.074 147.051C249.051 147.051 249.84 146.836 250.441 146.406C251.043 145.977 251.344 145.434 251.344 144.777Z" fill="#53A7D7"/>
</svg>
