<svg width="129" height="44" viewBox="0 0 129 44" fill="none" xmlns="http://www.w3.org/2000/svg">
<path d="M11.8972 8.02V9.18H8.01719V22H6.61719V9.18H2.71719V8.02H11.8972ZM24.4878 8.02V22H23.0878V15.46H15.5078V22H14.1078V8.02H15.5078V14.3H23.0878V8.02H24.4878ZM29.082 9.16V14.38H34.382V15.54H29.082V20.84H34.982V22H27.682V8H34.982V9.16H29.082ZM56.1806 8.04L52.2806 22H48.9806L46.3606 12.06L43.6206 22L40.3406 22.02L36.5806 8.04H39.5806L42.0406 18.88L44.8806 8.04H48.0006L50.6806 18.82L53.1606 8.04H56.1806ZM60.8089 8.04V22H58.0089V8.04H60.8089ZM73.0753 8.04V10.3H69.3553V22H66.5553V10.3H62.8353V8.04H73.0753ZM74.4383 15C74.4383 13.6267 74.7449 12.4 75.3583 11.32C75.9849 10.2267 76.8316 9.38 77.8983 8.78C78.9783 8.16667 80.1849 7.86 81.5183 7.86C83.0783 7.86 84.4449 8.26 85.6183 9.06C86.7916 9.86 87.6116 10.9667 88.0783 12.38H84.8583C84.5383 11.7133 84.0849 11.2133 83.4983 10.88C82.9249 10.5467 82.2583 10.38 81.4983 10.38C80.6849 10.38 79.9583 10.5733 79.3183 10.96C78.6916 11.3333 78.1983 11.8667 77.8383 12.56C77.4916 13.2533 77.3183 14.0667 77.3183 15C77.3183 15.92 77.4916 16.7333 77.8383 17.44C78.1983 18.1333 78.6916 18.6733 79.3183 19.06C79.9583 19.4333 80.6849 19.62 81.4983 19.62C82.2583 19.62 82.9249 19.4533 83.4983 19.12C84.0849 18.7733 84.5383 18.2667 84.8583 17.6H88.0783C87.6116 19.0267 86.7916 20.14 85.6183 20.94C84.4583 21.7267 83.0916 22.12 81.5183 22.12C80.1849 22.12 78.9783 21.82 77.8983 21.22C76.8316 20.6067 75.9849 19.76 75.3583 18.68C74.7449 17.6 74.4383 16.3733 74.4383 15ZM102.05 8.04V22H99.2498V16.06H93.2698V22H90.4698V8.04H93.2698V13.78H99.2498V8.04H102.05ZM107.606 10.3V13.8H112.306V16.02H107.606V19.72H112.906V22H104.806V8.02H112.906V10.3H107.606ZM122.65 22L119.57 16.56H118.25V22H115.45V8.04H120.69C121.77 8.04 122.69 8.23333 123.45 8.62C124.21 8.99333 124.777 9.50667 125.15 10.16C125.537 10.8 125.73 11.52 125.73 12.32C125.73 13.24 125.464 14.0733 124.93 14.82C124.397 15.5533 123.604 16.06 122.55 16.34L125.89 22H122.65ZM118.25 14.46H120.59C121.35 14.46 121.917 14.28 122.29 13.92C122.664 13.5467 122.85 13.0333 122.85 12.38C122.85 11.74 122.664 11.2467 122.29 10.9C121.917 10.54 121.35 10.36 120.59 10.36H118.25V14.46Z" fill="white"/>
<rect y="30" width="51" height="14" fill="#F72532"/>
<path d="M12.5063 40.5555H11.6623L8.2675 35.4077V40.5555H7.42344V34.0813H8.2675L11.6623 39.2199V34.0813H12.5063V40.5555ZM15.7168 34.777V36.9382H18.0727V37.6338H15.7168V39.8599H18.351V40.5555H14.8727V34.0813H18.351V34.777H15.7168ZM24.5348 34.0906V34.777H22.7725V40.5555H21.9284V34.777H20.1568V34.0906H24.5348ZM30.1558 34.0906V34.777H27.3454V36.9567H29.6271V37.6431H27.3454V40.5555H26.5013V34.0906H30.1558ZM32.9468 39.8692H35.21V40.5555H32.1028V34.0906H32.9468V39.8692ZM37.878 34.0906V40.5555H37.0339V34.0906H37.878ZM42.8876 37.3277L44.8725 40.5555H43.9171L42.3682 38.0326L40.8934 40.5555H39.9566L41.9322 37.3277L39.9473 34.0906H40.8934L42.4516 36.6228L43.9357 34.0906H44.8818L42.8876 37.3277Z" fill="white"/>
</svg>
