<svg width="52" height="52" viewBox="0 0 52 52" fill="none" xmlns="http://www.w3.org/2000/svg">
<path d="M44.5714 30.6429H7.42857C5.71941 30.6429 4.33333 32.029 4.33333 33.7381V36.8333C4.33333 38.5425 5.71941 39.9286 7.42857 39.9286H44.5714C46.2806 39.9286 47.6667 38.5425 47.6667 36.8333V33.7381C47.6667 32.029 46.2806 30.6429 44.5714 30.6429ZM44.5714 12.0714H7.42857C5.71941 12.0714 4.33333 13.4575 4.33333 15.1667V18.2619C4.33333 19.9711 5.71941 21.3572 7.42857 21.3572H44.5714C46.2806 21.3572 47.6667 19.9711 47.6667 18.2619V15.1667C47.6667 13.4575 46.2806 12.0714 44.5714 12.0714Z" fill="#C4C4C4"/>
</svg>
