<svg width="43" height="37" viewBox="0 0 43 37" fill="none" xmlns="http://www.w3.org/2000/svg">
<path d="M21.5023 5.01218C11.6074 5.01218 3.58797 10.6181 3.58797 17.5366C3.58797 20.4028 4.98053 23.0281 7.2898 25.1416C6.24713 27.514 4.07782 29.5251 4.04283 29.5492C3.58097 29.9707 3.45501 30.5849 3.72093 31.1147C3.98685 31.6446 4.59565 31.9878 5.26744 31.9878C9.57108 31.9878 12.965 30.4404 15.0014 29.2C17.0237 29.7479 19.207 30.061 21.5023 30.061C31.3972 30.061 39.4167 24.4551 39.4167 17.5366C39.4167 10.6181 31.3972 5.01218 21.5023 5.01218ZM21.5023 27.1708C19.6339 27.1708 17.7865 26.9239 16.0161 26.4422L14.4276 26.0086L13.063 26.8396C12.0623 27.4477 10.6907 28.1282 9.03925 28.5858C9.55009 27.8572 10.0469 27.0383 10.4318 26.1652L11.1736 24.4732L9.73203 23.1605C8.46543 21.9984 6.94691 20.0776 6.94691 17.5366C6.94691 12.2258 13.4759 7.90243 21.5023 7.90243C29.5288 7.90243 36.0577 12.2258 36.0577 17.5366C36.0577 22.8474 29.5288 27.1708 21.5023 27.1708Z" fill="white"/>
</svg>
