<svg width="46" height="46" viewBox="0 0 46 46" fill="none" xmlns="http://www.w3.org/2000/svg">
<path d="M41.8618 16.9433C31.25 7.1282 14.7457 7.13179 4.13815 16.9433C3.73925 17.3123 3.73146 17.937 4.11719 18.3197L6.16802 20.3544C6.53578 20.7198 7.12756 20.7276 7.50969 20.3772C16.2497 12.3703 29.749 12.3685 38.4908 20.3772C38.873 20.7276 39.4647 20.7192 39.8325 20.3544L41.8833 18.3197C42.2685 17.937 42.2607 17.3123 41.8618 16.9433ZM23 28.75C20.8826 28.75 19.1666 30.466 19.1666 32.5833C19.1666 34.7007 20.8826 36.4167 23 36.4167C25.1173 36.4167 26.8333 34.7007 26.8333 32.5833C26.8333 30.466 25.1173 28.75 23 28.75ZM35.1391 23.7433C28.2355 17.6381 17.7567 17.6447 10.8609 23.7433C10.4476 24.1087 10.4344 24.743 10.8267 25.1299L12.8895 27.1658C13.2489 27.5203 13.8275 27.5443 14.2102 27.2137C19.2385 22.867 26.7728 22.8766 31.7891 27.2137C32.1718 27.5443 32.7504 27.5209 33.1098 27.1658L35.1726 25.1299C35.5655 24.743 35.5517 24.1081 35.1391 23.7433Z" fill="white"/>
</svg>
