<svg width="43" height="37" viewBox="0 0 43 37" fill="none" xmlns="http://www.w3.org/2000/svg">
<path d="M36.5745 24.9009C35.2223 23.6507 32.6923 21.77 32.6923 15.6094C32.6923 10.9302 28.8794 7.18442 23.7382 6.26544V5.01043C23.7382 3.94632 22.736 3.08334 21.5 3.08334C20.264 3.08334 19.2618 3.94632 19.2618 5.01043V6.26544C14.1206 7.18442 10.3077 10.9302 10.3077 15.6094C10.3077 21.77 7.77765 23.6507 6.4255 24.9009C6.00558 25.2894 5.81942 25.7537 5.82292 26.2083C5.83062 27.196 6.73135 28.1354 8.0695 28.1354H34.9305C36.2687 28.1354 37.1701 27.196 37.1771 26.2083C37.1806 25.7537 36.9944 25.2888 36.5745 24.9009ZM10.5491 25.2448C12.0343 23.5604 13.658 20.7685 13.6657 15.6443C13.6657 15.6323 13.6615 15.6214 13.6615 15.6094C13.6615 11.8841 17.1706 8.86459 21.5 8.86459C25.8294 8.86459 29.3385 11.8841 29.3385 15.6094C29.3385 15.6214 29.3343 15.6323 29.3343 15.6443C29.342 20.7692 30.9657 23.561 32.4509 25.2448H10.5491ZM21.5 33.9167C23.9719 33.9167 25.9771 32.1913 25.9771 30.0625H17.0229C17.0229 32.1913 19.0281 33.9167 21.5 33.9167Z" fill="white"/>
</svg>
