<svg width="150" height="35" viewBox="0 0 150 35" fill="none" xmlns="http://www.w3.org/2000/svg">
<path d="M4.248 21.714C4.38 21.726 4.53 21.738 4.698 21.75C4.878 21.75 5.088 21.75 5.328 21.75C6.732 21.75 7.77 21.396 8.442 20.688C9.126 19.98 9.468 19.002 9.468 17.754C9.468 16.446 9.144 15.456 8.496 14.784C7.848 14.112 6.822 13.776 5.418 13.776C5.226 13.776 5.028 13.782 4.824 13.794C4.62 13.794 4.428 13.806 4.248 13.83V21.714ZM12.366 17.754C12.366 18.834 12.198 19.776 11.862 20.58C11.526 21.384 11.046 22.05 10.422 22.578C9.81 23.106 9.06 23.502 8.172 23.766C7.284 24.03 6.288 24.162 5.184 24.162C4.68 24.162 4.092 24.138 3.42 24.09C2.748 24.054 2.088 23.97 1.44 23.838V11.688C2.088 11.568 2.76 11.49 3.456 11.454C4.164 11.406 4.77 11.382 5.274 11.382C6.342 11.382 7.308 11.502 8.172 11.742C9.048 11.982 9.798 12.36 10.422 12.876C11.046 13.392 11.526 14.052 11.862 14.856C12.198 15.66 12.366 16.626 12.366 17.754ZM14.7115 24V11.526H23.1355V13.884H17.5195V16.332H22.5055V18.636H17.5195V21.642H23.5495V24H14.7115ZM29.0295 21.858C29.4255 21.858 29.7495 21.828 30.0015 21.768C30.2655 21.696 30.4755 21.606 30.6315 21.498C30.7875 21.378 30.8955 21.24 30.9555 21.084C31.0155 20.928 31.0455 20.754 31.0455 20.562C31.0455 20.154 30.8535 19.818 30.4695 19.554C30.0855 19.278 29.4255 18.984 28.4895 18.672C28.0815 18.528 27.6735 18.366 27.2655 18.186C26.8575 17.994 26.4915 17.76 26.1675 17.484C25.8435 17.196 25.5795 16.854 25.3755 16.458C25.1715 16.05 25.0695 15.558 25.0695 14.982C25.0695 14.406 25.1775 13.89 25.3935 13.434C25.6095 12.966 25.9155 12.57 26.3115 12.246C26.7075 11.922 27.1875 11.676 27.7515 11.508C28.3155 11.328 28.9515 11.238 29.6595 11.238C30.4995 11.238 31.2255 11.328 31.8375 11.508C32.4495 11.688 32.9535 11.886 33.3495 12.102L32.5395 14.316C32.1915 14.136 31.8015 13.98 31.3695 13.848C30.9495 13.704 30.4395 13.632 29.8395 13.632C29.1675 13.632 28.6815 13.728 28.3815 13.92C28.0935 14.1 27.9495 14.382 27.9495 14.766C27.9495 14.994 28.0035 15.186 28.1115 15.342C28.2195 15.498 28.3695 15.642 28.5615 15.774C28.7655 15.894 28.9935 16.008 29.2455 16.116C29.5095 16.212 29.7975 16.314 30.1095 16.422C30.7575 16.662 31.3215 16.902 31.8015 17.142C32.2815 17.37 32.6775 17.64 32.9895 17.952C33.3135 18.264 33.5535 18.63 33.7095 19.05C33.8655 19.47 33.9435 19.98 33.9435 20.58C33.9435 21.744 33.5355 22.65 32.7195 23.298C31.9035 23.934 30.6735 24.252 29.0295 24.252C28.4775 24.252 27.9795 24.216 27.5355 24.144C27.0915 24.084 26.6955 24.006 26.3475 23.91C26.0115 23.814 25.7175 23.712 25.4655 23.604C25.2255 23.496 25.0215 23.394 24.8535 23.298L25.6455 21.066C26.0175 21.27 26.4735 21.456 27.0135 21.624C27.5655 21.78 28.2375 21.858 29.0295 21.858ZM45.0045 11.526V13.92H41.2425V24H38.4345V13.92H34.6725V11.526H45.0045ZM51.9964 16.656C52.5004 15.804 52.9804 14.952 53.4364 14.1C53.8924 13.248 54.3124 12.39 54.6964 11.526H57.7924C57.1084 12.87 56.4004 14.172 55.6684 15.432C54.9364 16.692 54.1624 17.958 53.3464 19.23V24H50.5384V19.266C49.7224 17.994 48.9424 16.722 48.1984 15.45C47.4664 14.178 46.7584 12.87 46.0744 11.526H49.3324C49.7164 12.39 50.1304 13.248 50.5744 14.1C51.0184 14.952 51.4924 15.804 51.9964 16.656ZM69.192 11.526V13.92H65.43V24H62.622V13.92H58.86V11.526H69.192ZM74.6506 11.382C76.5226 11.382 77.9566 11.718 78.9526 12.39C79.9486 13.05 80.4466 14.082 80.4466 15.486C80.4466 16.362 80.2426 17.076 79.8346 17.628C79.4386 18.168 78.8626 18.594 78.1066 18.906C78.3586 19.218 78.6226 19.578 78.8986 19.986C79.1746 20.382 79.4446 20.802 79.7086 21.246C79.9846 21.678 80.2486 22.134 80.5006 22.614C80.7526 23.082 80.9866 23.544 81.2026 24H78.0526C77.8246 23.592 77.5906 23.178 77.3506 22.758C77.1226 22.338 76.8826 21.93 76.6306 21.534C76.3906 21.138 76.1506 20.766 75.9106 20.418C75.6706 20.058 75.4306 19.734 75.1906 19.446H73.8046V24H70.9966V11.706C71.6086 11.586 72.2386 11.502 72.8866 11.454C73.5466 11.406 74.1346 11.382 74.6506 11.382ZM74.8126 13.776C74.6086 13.776 74.4226 13.782 74.2546 13.794C74.0986 13.806 73.9486 13.818 73.8046 13.83V17.214H74.5966C75.6526 17.214 76.4086 17.082 76.8646 16.818C77.3206 16.554 77.5486 16.104 77.5486 15.468C77.5486 14.856 77.3146 14.424 76.8466 14.172C76.3906 13.908 75.7126 13.776 74.8126 13.776ZM91.917 24C91.785 23.568 91.635 23.124 91.467 22.668C91.311 22.212 91.155 21.756 90.999 21.3H86.139C85.983 21.756 85.821 22.212 85.653 22.668C85.497 23.124 85.353 23.568 85.221 24H82.305C82.773 22.656 83.217 21.414 83.637 20.274C84.057 19.134 84.465 18.06 84.861 17.052C85.269 16.044 85.665 15.09 86.049 14.19C86.445 13.278 86.853 12.39 87.273 11.526H89.955C90.363 12.39 90.765 13.278 91.161 14.19C91.557 15.09 91.953 16.044 92.349 17.052C92.757 18.06 93.171 19.134 93.591 20.274C94.011 21.414 94.455 22.656 94.923 24H91.917ZM88.551 14.352C88.491 14.532 88.401 14.778 88.281 15.09C88.161 15.402 88.023 15.762 87.867 16.17C87.711 16.578 87.537 17.028 87.345 17.52C87.165 18.012 86.979 18.528 86.787 19.068H90.333C90.141 18.528 89.955 18.012 89.775 17.52C89.595 17.028 89.421 16.578 89.253 16.17C89.097 15.762 88.959 15.402 88.839 15.09C88.719 14.778 88.623 14.532 88.551 14.352ZM99.0679 24C98.5759 22.956 98.0899 21.87 97.6099 20.742C97.1299 19.614 96.6739 18.498 96.2419 17.394C95.8099 16.29 95.4079 15.234 95.0359 14.226C94.6759 13.218 94.3639 12.318 94.0999 11.526H97.1959C97.4359 12.246 97.6939 13.026 97.9699 13.866C98.2579 14.694 98.5459 15.522 98.8339 16.35C99.1339 17.178 99.4219 17.97 99.6979 18.726C99.9739 19.482 100.232 20.136 100.472 20.688C100.7 20.136 100.952 19.482 101.228 18.726C101.516 17.97 101.804 17.178 102.092 16.35C102.392 15.522 102.68 14.694 102.956 13.866C103.244 13.026 103.508 12.246 103.748 11.526H106.736C106.46 12.318 106.142 13.218 105.782 14.226C105.422 15.234 105.026 16.29 104.594 17.394C104.162 18.498 103.706 19.614 103.226 20.742C102.746 21.87 102.26 22.956 101.768 24H99.0679ZM108.35 24V11.526H116.774V13.884H111.158V16.332H116.144V18.636H111.158V21.642H117.188V24H108.35ZM127.6 21.588V24H119.266V11.526H122.074V21.588H127.6ZM133.11 21.858C133.506 21.858 133.83 21.828 134.082 21.768C134.346 21.696 134.556 21.606 134.712 21.498C134.868 21.378 134.976 21.24 135.036 21.084C135.096 20.928 135.126 20.754 135.126 20.562C135.126 20.154 134.934 19.818 134.55 19.554C134.166 19.278 133.506 18.984 132.57 18.672C132.162 18.528 131.754 18.366 131.346 18.186C130.938 17.994 130.572 17.76 130.248 17.484C129.924 17.196 129.66 16.854 129.456 16.458C129.252 16.05 129.15 15.558 129.15 14.982C129.15 14.406 129.258 13.89 129.474 13.434C129.69 12.966 129.996 12.57 130.392 12.246C130.788 11.922 131.268 11.676 131.832 11.508C132.396 11.328 133.032 11.238 133.74 11.238C134.58 11.238 135.306 11.328 135.918 11.508C136.53 11.688 137.034 11.886 137.43 12.102L136.62 14.316C136.272 14.136 135.882 13.98 135.45 13.848C135.03 13.704 134.52 13.632 133.92 13.632C133.248 13.632 132.762 13.728 132.462 13.92C132.174 14.1 132.03 14.382 132.03 14.766C132.03 14.994 132.084 15.186 132.192 15.342C132.3 15.498 132.45 15.642 132.642 15.774C132.846 15.894 133.074 16.008 133.326 16.116C133.59 16.212 133.878 16.314 134.19 16.422C134.838 16.662 135.402 16.902 135.882 17.142C136.362 17.37 136.758 17.64 137.07 17.952C137.394 18.264 137.634 18.63 137.79 19.05C137.946 19.47 138.024 19.98 138.024 20.58C138.024 21.744 137.616 22.65 136.8 23.298C135.984 23.934 134.754 24.252 133.11 24.252C132.558 24.252 132.06 24.216 131.616 24.144C131.172 24.084 130.776 24.006 130.428 23.91C130.092 23.814 129.798 23.712 129.546 23.604C129.306 23.496 129.102 23.394 128.934 23.298L129.726 21.066C130.098 21.27 130.554 21.456 131.094 21.624C131.646 21.78 132.318 21.858 133.11 21.858Z" fill="white"/>
<rect x="34.5" y="11.5" width="13" height="2.5" fill="white"/>
<rect x="56.5" y="11.5" width="13" height="2.5" fill="white"/>
</svg>
