<svg width="34" height="34" viewBox="0 0 34 34" fill="none" xmlns="http://www.w3.org/2000/svg">
<g clip-path="url(#clip0)">
<path d="M24.0711 9.92892C20.1649 6.02272 13.8351 6.02272 9.92893 9.92892C6.02274 13.8351 6.02274 20.1649 9.92893 24.0711C13.8351 27.9772 20.1649 27.9772 24.0711 24.0711C27.9773 20.1649 27.9773 13.8351 24.0711 9.92892ZM20.3074 21.9041C20.1193 22.0923 19.8113 22.0923 19.6231 21.9041L17 19.281L14.3769 21.9041C14.1887 22.0923 13.8807 22.0923 13.6926 21.9041L12.0959 20.3074C11.9077 20.1192 11.9077 19.8113 12.0959 19.6231L14.719 17L12.0959 14.3768C11.9077 14.1887 11.9077 13.8807 12.0959 13.6925L13.6926 12.0959C13.8807 11.9077 14.1887 11.9077 14.3769 12.0959L17 14.719L19.6231 12.0959C19.8113 11.9077 20.1193 11.9077 20.3074 12.0959L21.9041 13.6925C22.0923 13.8807 22.0923 14.1887 21.9041 14.3768L19.281 17L21.9041 19.6231C22.0923 19.8113 22.0923 20.1192 21.9041 20.3074L20.3074 21.9041Z" fill="#F52323"/>
</g>
<defs>
<clipPath id="clip0">
<rect width="24" height="24" fill="white" transform="translate(17 0.0294189) rotate(45)"/>
</clipPath>
</defs>
</svg>
