<svg width="43" height="37" viewBox="0 0 43 37" fill="none" xmlns="http://www.w3.org/2000/svg">
<path d="M27.7708 21.3906C25.7622 21.3906 24.7964 22.3542 21.5 22.3542C18.2036 22.3542 17.2448 21.3906 15.2292 21.3906C10.0361 21.3906 5.82291 25.016 5.82291 29.4844V31.0261C5.82291 32.6219 7.32763 33.9167 9.18229 33.9167H33.8177C35.6724 33.9167 37.1771 32.6219 37.1771 31.0261V29.4844C37.1771 25.016 32.9639 21.3906 27.7708 21.3906ZM33.8177 31.0261H9.18229V29.4844C9.18229 26.6178 11.8978 24.2813 15.2292 24.2813C16.251 24.2813 17.9097 25.2448 21.5 25.2448C25.1183 25.2448 26.742 24.2813 27.7708 24.2813C31.1022 24.2813 33.8177 26.6178 33.8177 29.4844V31.0261ZM21.5 20.4271C27.064 20.4271 31.5781 16.5428 31.5781 11.7552C31.5781 6.96762 27.064 3.08334 21.5 3.08334C15.936 3.08334 11.4219 6.96762 11.4219 11.7552C11.4219 16.5428 15.936 20.4271 21.5 20.4271ZM21.5 5.97397C25.2023 5.97397 28.2187 8.56951 28.2187 11.7552C28.2187 14.9409 25.2023 17.5365 21.5 17.5365C17.7977 17.5365 14.7812 14.9409 14.7812 11.7552C14.7812 8.56951 17.7977 5.97397 21.5 5.97397Z" fill="white"/>
</svg>
